# xmcd
# 
# Track frame offsets:
#     150
#     11867
#     23917
#     37922
#     55375
#     74020
#     87285
#     104250
#     118020
#     135582
# 
# Disc length: 1999
# 
# Revision: 3
# Processed by: cddbd v1.5.2PL0 Copyright (c) Steve Scherf et al.
# Submitted via: fre:ac v1.0.17
# 
DISCID=8707cd0a
DTITLE=Palomino Road - Palomino Road
DYEAR=1993
DGENRE=Country
TTITLE0=Why Baby Why
TTITLE1=It Works Both Ways
TTITLE2=That's Where I Draw the Line
TTITLE3=The Best That You Can Do
TTITLE4=Dead End Saloon
TTITLE5=Love Come Back
TTITLE6=Over And Over
TTITLE7=No Time To Stop Believing
TTITLE8=She Rides Alone
TTITLE9=Love Has The Last Word
EXTD=Submitted By WinSkol\n\nCountry\n\n
EXTT0=
EXTT1=
EXTT2=
EXTT3=
EXTT4=
EXTT5=
EXTT6=
EXTT7=
EXTT8=
EXTT9=
PLAYORDER=
